<?xml version="1.0" encoding="UTF-8"?>
<svg xmlns="http://www.w3.org/2000/svg" viewBox="0 0 64 64">
<style>
:root{color-scheme:light dark}
.bg{fill:#FFFBF5}
.ink{fill:#1C1814}
.wave{stroke:#1C1814}
@media (prefers-color-scheme: dark){
.bg{fill:#1C1814}
.ink{fill:#FFFBF5}
.wave{stroke:#FFFBF5}
}
</style>
<rect class="bg" width="64" height="64" rx="14"/>
<g class="ink">
<path d="M14 46 c0 1 0.5 1.5 1.5 1.5 h3 c1 0 1.5-0.5 1.5-1.5 L23 25 c0.3-2 1-3 2.5-3.5 c-1.8-0.6-3 0-3.8 1 c-0.9 1-1.3 2.4-1.5 4z"/>
<path d="M22 46 c0 1 0.5 1.5 1.5 1.5 h3 c1 0 1.5-0.5 1.5-1.5 L31 26 c0.3-2 0-3-1-3.5 c1.5-0.6 3-0.3 4 0.8 c1 1.2 1.2 2.8 1 4.7 L33 46z"/>
<path d="M32 46 c0 1 0.5 1.5 1.5 1.5 h3 c1 0 1.5-0.5 1.5-1.5 L41 26 c0.3-2 0-3-1-3.5 c1.5-0.6 3-0.3 4 0.8 c1 1.2 1.2 2.8 1 4.7 L43 46z"/>
</g>
<path class="wave" d="M43 46 c3-0.2 5.5-1.3 7.5-3 c1.8-1.5 3.2-1.5 4.5 0" fill="none" stroke-width="1.4" stroke-linecap="round"/>
<circle cx="57" cy="44.5" r="2" fill="#B23A2A"/>
</svg>
